<svg xmlns="http://www.w3.org/2000/svg" x="0px" y="0px"
width="48" height="48"
viewBox="0 0 172 172"
style=" fill:#000000;"><g fill="none" fill-rule="nonzero" stroke="none" stroke-width="1" stroke-linecap="butt" stroke-linejoin="miter" stroke-miterlimit="10" stroke-dasharray="" stroke-dashoffset="0" font-family="none" font-weight="none" font-size="none" text-anchor="none" style="mix-blend-mode: normal"><path d="M0,172v-172h172v172z" fill="none"></path><g fill="#ffffff"><path d="M86,14.33333c-19.72655,0 -35.83333,16.1068 -35.83333,35.83333c0,19.72653 16.10679,35.83333 35.83333,35.83333c19.72655,0 35.83333,-16.1068 35.83333,-35.83333c0,-19.72653 -16.10679,-35.83333 -35.83333,-35.83333zM44.79167,100.33333c-8.84188,0 -16.125,7.28312 -16.125,16.125v4.2972c0,10.53809 6.68189,19.99054 16.87386,26.49007c10.19197,6.49953 24.13682,10.42106 40.45947,10.42106c16.32265,0 30.2675,-3.92153 40.45947,-10.42106c10.19197,-6.49953 16.87386,-15.95198 16.87386,-26.49007v-4.2972c0,-8.84188 -7.28312,-16.125 -16.125,-16.125z"></path></g></g></svg>