<svg xmlns="http://www.w3.org/2000/svg" x="0px" y="0px"
width="24" height="24"
viewBox="0 0 172 172"
style=" fill:#000000;"><g fill="none" fill-rule="nonzero" stroke="none" stroke-width="1" stroke-linecap="butt" stroke-linejoin="miter" stroke-miterlimit="10" stroke-dasharray="" stroke-dashoffset="0" font-family="none" font-weight="none" font-size="none" text-anchor="none" style="mix-blend-mode: normal"><path d="M0,172v-172h172v172z" fill="none"></path><g fill="#333333"><path d="M86,21.5c-15.80967,0 -28.66667,12.857 -28.66667,28.66667c0,15.80967 12.857,28.66667 28.66667,28.66667c15.80967,0 28.66667,-12.857 28.66667,-28.66667c0,-15.80967 -12.857,-28.66667 -28.66667,-28.66667zM86,35.83333c7.90483,0 14.33333,6.4285 14.33333,14.33333c0,7.90483 -6.4285,14.33333 -14.33333,14.33333c-7.90483,0 -14.33333,-6.4285 -14.33333,-14.33333c0,-7.90483 6.4285,-14.33333 14.33333,-14.33333zM129,86c-12.98756,0 -24.65636,5.85477 -32.55794,15.0332c-3.73035,-0.42987 -7.30189,-0.69987 -10.44206,-0.69987c-22.5105,0 -64.5,11.0725 -64.5,32.25v17.91667h70.35091c7.46711,12.81229 21.3288,21.5 37.14909,21.5c23.65,0 43,-19.35 43,-43c0,-23.65 -19.35,-43 -43,-43zM121.83333,107.5h14.33333v14.33333h14.33333v14.33333h-14.33333v14.33333h-14.33333v-14.33333h-14.33333v-14.33333h14.33333zM86,114.66667c0.81226,0 1.6453,0.12519 2.46354,0.15397c-1.56855,4.44945 -2.46354,9.21078 -2.46354,14.17936c0,2.44588 0.2606,4.82942 0.65788,7.16667h-50.82455v-3.58333c0,-6.22783 26.574,-17.91667 50.16667,-17.91667z"></path></g></g></svg>