<svg xmlns="http://www.w3.org/2000/svg" x="0px" y="0px"
width="24" height="24"
viewBox="0 0 172 172"
style=" fill:#000000;"><g fill="none" fill-rule="nonzero" stroke="none" stroke-width="1" stroke-linecap="butt" stroke-linejoin="miter" stroke-miterlimit="10" stroke-dasharray="" stroke-dashoffset="0" font-family="none" font-weight="none" font-size="none" text-anchor="none" style="mix-blend-mode: normal"><path d="M0,172v-172h172v172z" fill="none"></path><g fill="#3186be"><path d="M78.83333,7.16667c-15.74756,0 -28.66667,12.91911 -28.66667,28.66667v89.58333c0,21.6833 17.73337,39.41667 39.41667,39.41667c21.6833,0 39.41667,-17.73336 39.41667,-39.41667v-82.41667h-14.33333v82.41667c0,13.93503 -11.1483,25.08333 -25.08333,25.08333c-13.93503,0 -25.08333,-11.1483 -25.08333,-25.08333v-89.58333c0,-8.00277 6.33056,-14.33333 14.33333,-14.33333c8.00277,0 14.33333,6.33056 14.33333,14.33333v75.25c0,2.05638 -1.52695,3.58333 -3.58333,3.58333c-2.05638,0 -3.58333,-1.52695 -3.58333,-3.58333v-68.08333h-14.33333v68.08333c0,9.81162 8.10505,17.91667 17.91667,17.91667c9.81162,0 17.91667,-8.10505 17.91667,-17.91667v-75.25c0,-15.74756 -12.91911,-28.66667 -28.66667,-28.66667z"></path></g></g></svg>