<svg xmlns="http://www.w3.org/2000/svg" x="0px" y="0px"
width="24" height="24"
viewBox="0 0 172 172"
style=" fill:#000000;"><g fill="none" fill-rule="nonzero" stroke="none" stroke-width="1" stroke-linecap="butt" stroke-linejoin="miter" stroke-miterlimit="10" stroke-dasharray="" stroke-dashoffset="0" font-family="none" font-weight="none" font-size="none" text-anchor="none" style="mix-blend-mode: normal"><path d="M0,172v-172h172v172z" fill="none"></path><g fill="#ffffff"><path d="M28.66667,28.66667c-7.91917,0 -14.33333,6.41417 -14.33333,14.33333v86c0,7.91917 6.41417,14.33333 14.33333,14.33333h43.06999l8.35644,-14.33333h-51.42643v-64.486l57.33333,35.81934l57.33333,-35.81934v29.88444l14.33333,24.56543v-75.96386c0,-7.91917 -6.41417,-14.33333 -14.33333,-14.33333zM28.66667,43h114.66667v7.18066l-57.33333,35.81934l-57.33333,-35.81934zM121.80534,92.9847c-2.40442,0 -4.80369,1.19717 -6.18685,3.56934l-37.69498,64.59798c-2.78783,4.78017 0.65418,10.77799 6.18685,10.77799h75.38997c5.53267,0 8.97469,-5.99783 6.18685,-10.77799l-37.69499,-64.59798c-1.38317,-2.37217 -3.78243,-3.56934 -6.18685,-3.56934zM114.63867,114.59668h14.33333v28.66667h-14.33333zM114.63867,150.43001h14.33333v14.33333h-14.33333z"></path></g></g></svg>