<svg xmlns="http://www.w3.org/2000/svg" x="0px" y="0px"
width="48" height="48"
viewBox="0 0 172 172"
style=" fill:#000000;"><g fill="none" fill-rule="nonzero" stroke="none" stroke-width="1" stroke-linecap="butt" stroke-linejoin="miter" stroke-miterlimit="10" stroke-dasharray="" stroke-dashoffset="0" font-family="none" font-weight="none" font-size="none" text-anchor="none" style="mix-blend-mode: normal"><path d="M0,172v-172h172v172z" fill="none"></path><g><path d="M21.49642,93.16667v0c0.1505,26.28017 19.98067,46.58333 44.4405,46.58333h6.67217c1.21117,-2.16433 3.47942,-3.58333 6.22067,-3.58333h3.58333c2.74125,0 5.01667,1.419 6.22425,3.58333h6.82267c24.45983,0 44.28642,-21.95867 44.28642,-46.58333v0c0,-24.62825 -19.82658,-43 -44.29,-43h-29.52308c-24.45625,0 -44.29,20.02725 -44.43692,43z" fill="#f8bbd0"></path><path d="M85.30125,136.81167c2.5585,1.18967 4.2785,3.85208 4.2785,6.52167c0,3.58333 0,10.75 7.16667,10.75h17.91667c2.03533,0 3.58333,-1.54442 3.58333,-3.58333c0,0 -0.44433,-16.63742 3.50092,-20.17058c0.06092,-0.05375 0.08958,-0.11825 0.14333,-0.172c-7.38167,5.93758 -16.50842,9.59258 -26.43067,9.59258h-6.82267c-0.74533,-1.32942 -1.92425,-2.32558 -3.33608,-2.93833zM133.26058,116.86325c0.05017,-0.06808 0.11108,-0.09675 0.15767,-0.18633c2.74483,-5.59358 9.56033,-6.87642 13.49483,-9.17692c3.9345,-2.3005 3.41492,-3.09958 3.58333,-7.16667v-14.33333c0,-4.07067 0.25442,-4.7085 -3.58333,-7.16667c-3.483,-2.23242 -9.7825,-2.84517 -13.60233,-8.29183c4.05633,6.48583 6.43567,14.17208 6.43567,22.62517c0,8.48533 -2.39725,16.63025 -6.48583,23.69658zM39.41308,50.16667c0,-1.978 -1.60175,-3.58333 -3.58333,-3.58333c-7.90483,0 -14.33333,6.4285 -14.33333,14.33333c0,4.71208 2.31483,8.86517 5.83008,11.47742c1.20758,-2.05683 2.57642,-4.0205 4.10292,-5.86233c-1.66983,-1.31508 -2.76633,-3.32892 -2.76633,-5.61508c0,-3.95242 3.21425,-7.16667 7.16667,-7.16667c1.98158,0 3.58333,-1.60533 3.58333,-3.58333zM37.1305,128.70258c0.24725,0.38342 0.5805,0.74533 1.10725,1.0535c5.69033,3.311 4.75867,20.74392 4.75867,20.74392c0,2.03892 2.2575,3.58333 3.096,3.58333h18.404c7.16667,0 7.16667,-7.16667 7.16667,-10.75c0,-2.66958 1.72,-5.332 4.2785,-6.51808c-1.41183,0.60917 -2.59075,1.60533 -3.33608,2.93475h-6.67217c-11.00083,0 -21.04492,-4.13158 -28.80283,-11.04742zM132.23217,43c0,0 -17.21075,0 -22.94408,2.87025c-5.7405,2.87025 -8.60717,7.51067 -8.60717,14.3405c0,6.83342 6.03792,10.7285 14.3405,11.47742c8.30617,0.74892 8.33842,-3.92733 8.60717,-8.60717c0.84567,-14.71675 8.60358,-20.081 8.60358,-20.081z" fill="#ff80ab"></path><path d="M128.99642,75.25c-1.97902,0 -3.58333,1.60431 -3.58333,3.58333c0,1.97902 1.60431,3.58333 3.58333,3.58333c1.97902,0 3.58333,-1.60431 3.58333,-3.58333c0,-1.97902 -1.60431,-3.58333 -3.58333,-3.58333z" fill="#0d47a1"></path><path d="M60.91308,53.75h35.83333v7.16667h-35.83333z" fill="#880e4f"></path><path d="M78.82975,14.33333c-11.87412,0 -21.5,9.62588 -21.5,21.5c0,11.87412 9.62588,21.5 21.5,21.5c11.87412,0 21.5,-9.62588 21.5,-21.5c0,-11.87412 -9.62588,-21.5 -21.5,-21.5z" fill="#ffc107"></path><path d="M58.59108,43c2.94908,8.342 10.88258,14.33333 20.23867,14.33333c9.35608,0 17.28958,-5.99133 20.23867,-14.33333z" fill="#ff9800"></path></g></g></svg>