<svg xmlns="http://www.w3.org/2000/svg" x="0px" y="0px"
width="24" height="24"
viewBox="0 0 172 172"
style=" fill:#000000;"><g fill="none" fill-rule="nonzero" stroke="none" stroke-width="1" stroke-linecap="butt" stroke-linejoin="miter" stroke-miterlimit="10" stroke-dasharray="" stroke-dashoffset="0" font-family="none" font-weight="none" font-size="none" text-anchor="none" style="mix-blend-mode: normal"><path d="M0,172v-172h172v172z" fill="none"></path><g fill="#ffffff"><path d="M86.19597,14.33333c-2.35067,0 -4.55274,1.15126 -5.89291,3.09342l-32.51595,47.07324h-33.43978c-2.24317,0 -4.34927,1.04297 -5.71094,2.82747c-1.34733,1.77733 -1.80544,4.08567 -1.21777,6.24284l18.35059,66.40365c1.71283,6.192 7.3941,10.52604 13.81543,10.52604h92.83073c6.42133,0 12.09577,-4.32721 13.80144,-10.51205l18.35059,-66.40365c0.59483,-2.16433 0.14356,-4.4795 -1.20378,-6.25684c-1.36167,-1.7845 -3.47494,-2.82747 -5.71094,-2.82747h-33.38379l-32.15202,-47.04525c-1.333,-1.94933 -3.53507,-3.11425 -5.89291,-3.12142zM86.16797,34.15365l20.73014,30.34635h-41.69825zM23.75358,78.83333h124.49284l-15.83106,57.33333h-92.83073zM106.01628,84.51628l-27.18294,27.18294l-12.84961,-12.84961l-10.13411,10.13411l22.98372,22.98372l37.31706,-37.31706z"></path></g></g></svg>