<svg xmlns="http://www.w3.org/2000/svg" x="0px" y="0px"
width="48" height="48"
viewBox="0 0 172 172"
style=" fill:#000000;"><g fill="none" fill-rule="nonzero" stroke="none" stroke-width="1" stroke-linecap="butt" stroke-linejoin="miter" stroke-miterlimit="10" stroke-dasharray="" stroke-dashoffset="0" font-family="none" font-weight="none" font-size="none" text-anchor="none" style="mix-blend-mode: normal"><path d="M0,172v-172h172v172z" fill="none"></path><g><path d="M132.58333,17.91667h-93.16667l-17.91667,25.08333v100.33333c0,5.93758 4.81242,10.75 10.75,10.75h107.5c5.934,0 10.75,-4.81242 10.75,-10.75v-17.91667v-82.41667z" fill="#ffc107"></path><path d="M118.25,107.5c0,17.81275 -14.43725,32.25 -32.25,32.25c-17.81275,0 -32.25,-14.43725 -32.25,-32.25c0,-17.81275 14.43725,-32.25 32.25,-32.25c17.81275,0 32.25,14.43725 32.25,32.25" fill="#ffffff"></path><path d="M109.76108,107.5c0,13.12933 -10.63892,23.76467 -23.76108,23.76467c-13.12575,0 -23.76467,-10.63533 -23.76467,-23.76467c0,-13.12575 10.63892,-23.76108 23.76467,-23.76108c13.12217,0 23.76108,10.63533 23.76108,23.76108" fill="#eeeeee"></path><path d="M89.58333,105.93408v-16.35075h-7.16667v16.51558v2.97058l2.18583,2.01383l8.54983,7.59308l4.859,-5.27108z" fill="#000000"></path><path d="M43.10392,25.08333l-12.79608,17.91667h34.19217c0,11.87517 9.62842,21.5 21.5,21.5c11.87158,0 21.5,-9.62483 21.5,-21.5h34.19217l-12.79608,-17.91667z" fill="#db8509"></path></g></g></svg>