<svg xmlns="http://www.w3.org/2000/svg" x="0px" y="0px"
width="24" height="24"
viewBox="0 0 172 172"
style=" fill:#000000;"><g fill="none" fill-rule="nonzero" stroke="none" stroke-width="1" stroke-linecap="butt" stroke-linejoin="miter" stroke-miterlimit="10" stroke-dasharray="" stroke-dashoffset="0" font-family="none" font-weight="none" font-size="none" text-anchor="none" style="mix-blend-mode: normal"><path d="M0,172v-172h172v172z" fill="none"></path><g fill="#666666"><path d="M86,14.33333c-21.58333,0 -40.82334,9.71562 -53.95996,24.87337l-17.70671,-17.70671v43h43l-15.21517,-15.21517c10.52135,-12.5589 26.24904,-20.61816 43.88184,-20.61816c31.61217,0 57.33333,25.72117 57.33333,57.33333c0,31.61217 -25.72117,57.33333 -57.33333,57.33333c-31.61217,0 -57.33333,-25.72117 -57.33333,-57.33333h-14.33333c0,39.517 32.14967,71.66667 71.66667,71.66667c39.517,0 71.66667,-32.14967 71.66667,-71.66667c0,-39.517 -32.14967,-71.66667 -71.66667,-71.66667zM78.83333,43v45.96744l23.59961,23.59961l10.13411,-10.13411l-19.40039,-19.40039v-40.03256z"></path></g></g></svg>