<svg xmlns="http://www.w3.org/2000/svg" x="0px" y="0px"
width="24" height="24"
viewBox="0 0 172 172"
style=" fill:#000000;"><g fill="none" fill-rule="nonzero" stroke="none" stroke-width="1" stroke-linecap="butt" stroke-linejoin="miter" stroke-miterlimit="10" stroke-dasharray="" stroke-dashoffset="0" font-family="none" font-weight="none" font-size="none" text-anchor="none" style="mix-blend-mode: normal"><path d="M0,172v-172h172v172z" fill="none"></path><g fill="#ffffff"><path d="M21.5,14.33333c-3.956,0 -7.16667,3.21067 -7.16667,7.16667v71.66667c0,3.956 3.21067,7.16667 7.16667,7.16667h129c3.956,0 7.16667,-3.21067 7.16667,-7.16667v-71.66667c0,-3.956 -3.21067,-7.16667 -7.16667,-7.16667zM35.20345,28.66667h101.5931c1.08296,3.05239 3.48439,5.45383 6.53678,6.53678v44.25977c-3.05239,1.08296 -5.45382,3.48439 -6.53678,6.53678h-101.5931c-1.08296,-3.05239 -3.4844,-5.45382 -6.53678,-6.53678v-44.25977c3.05239,-1.08296 5.45383,-3.4844 6.53678,-6.53678zM86,35.83333c-11.87412,0 -21.5,9.62588 -21.5,21.5c0,11.87412 9.62588,21.5 21.5,21.5c11.87412,0 21.5,-9.62588 21.5,-21.5c0,-11.87412 -9.62588,-21.5 -21.5,-21.5zM50.16667,50.16667c-3.956,0 -7.16667,3.2035 -7.16667,7.16667c0,3.96317 3.21067,7.16667 7.16667,7.16667c3.956,0 7.16667,-3.2035 7.16667,-7.16667c0,-3.96317 -3.21067,-7.16667 -7.16667,-7.16667zM121.83333,50.16667c-3.956,0 -7.16667,3.2035 -7.16667,7.16667c0,3.96317 3.21067,7.16667 7.16667,7.16667c3.956,0 7.16667,-3.2035 7.16667,-7.16667c0,-3.96317 -3.21067,-7.16667 -7.16667,-7.16667zM78.83333,114.66667v14.33333h-21.84993l28.66667,28.66667l28.66667,-28.66667h-21.15007v-14.33333z"></path></g></g></svg>