<svg xmlns="http://www.w3.org/2000/svg" x="0px" y="0px"
width="24" height="24"
viewBox="0 0 172 172"
style=" fill:#000000;"><g fill="none" fill-rule="nonzero" stroke="none" stroke-width="1" stroke-linecap="butt" stroke-linejoin="miter" stroke-miterlimit="10" stroke-dasharray="" stroke-dashoffset="0" font-family="none" font-weight="none" font-size="none" text-anchor="none" style="mix-blend-mode: normal"><path d="M0,172v-172h172v172z" fill="none"></path><g fill="#666666"><path d="M103.114,35.83333h21.40683l4.47917,-14.33333h-81.52083l-4.47917,14.33333h28.66667c11.01517,0 20.26733,7.14517 23.64283,17.02083h-47.83033l-4.47917,14.33333h52.86133c-2.795,10.80017 -12.52017,18.8125 -24.19467,18.8125h-28.66667v11.008l52.85417,53.492h18.8125v-1.79167l-50.16667,-50.16667c4.40033,0 9.62483,0 10.75,0c18.63333,0 33.9915,-13.57367 36.99433,-31.35417h12.2765l4.47917,-14.33333h-17.04233c-1.41183,-6.47867 -4.56517,-12.26217 -8.84367,-17.02083z"></path></g></g></svg>