<svg xmlns="http://www.w3.org/2000/svg" x="0px" y="0px"
width="24" height="24"
viewBox="0 0 172 172"
style=" fill:#000000;"><g fill="none" fill-rule="nonzero" stroke="none" stroke-width="1" stroke-linecap="butt" stroke-linejoin="miter" stroke-miterlimit="10" stroke-dasharray="" stroke-dashoffset="0" font-family="none" font-weight="none" font-size="none" text-anchor="none" style="mix-blend-mode: normal"><path d="M0,172v-172h172v172z" fill="none"></path><g fill="#e67e22"><path d="M35.83333,21.5l-14.33333,14.33333l10.07813,15.11719c2.65883,3.99183 7.13845,6.38281 11.92578,6.38281h3.69531l25.34928,25.34928l-40.38249,40.36849c-4.67267,4.67267 -4.67267,12.25018 0,16.92285l7.0127,7.0127c2.3435,2.3435 5.40109,3.51334 8.46842,3.51334c3.06017,0 6.13209,-1.16301 8.46842,-3.49935l33.46777,-33.48177l33.46777,33.48177c2.33633,2.33633 5.40825,3.49935 8.46842,3.49935c3.06017,0 6.1181,-1.16301 8.45443,-3.49935l7.0127,-7.0127c4.67267,-4.67267 4.67267,-12.25018 0,-16.92285l-33.46777,-33.48177l11.18392,-11.18392c1.41183,0.20783 2.82803,0.43392 4.2972,0.43392c15.83117,0 28.66667,-12.8355 28.66667,-28.66667c0,-4.19967 -0.94869,-8.16731 -2.57552,-11.75781l-10.13412,10.13411l-11.14192,-3.19141l-3.19141,-11.14193l10.13412,-10.13411c-3.5905,-1.62683 -7.55815,-2.57552 -11.75781,-2.57552c-15.83117,0 -28.66667,12.8355 -28.66667,28.66667c0,1.46917 0.22609,2.88537 0.43392,4.2972l-18.08464,18.08464l-25.34928,-25.34928v-3.69531c0,-4.78733 -2.39098,-9.26695 -6.38281,-11.92578zM119.63574,34.89551l0.64388,2.28158l3.19141,11.14193l1.63769,5.73893l5.73893,1.6377l11.14193,3.19141l2.28157,0.65788c-3.1605,5.117 -8.82116,8.53841 -15.27116,8.53841c-0.6235,0 -1.57667,-0.14311 -2.6875,-0.30794l-5.361,-0.81185l-3.84928,3.83529l-11.18392,11.18392l-0.06999,-0.06998l-23.93554,23.93554l0.06998,0.06999l-33.46777,33.46777c-0.2365,0.2365 -0.53817,0.36393 -0.86784,0.36393c-0.32967,0 -0.61734,-0.12743 -0.85384,-0.36393l-7.0127,-6.9987c-0.473,-0.473 -0.473,-1.25551 0,-1.73567l68.58724,-68.58724l3.82129,-3.94727l-0.81185,-5.375c-0.1505,-1.00333 -0.29395,-1.95202 -0.29395,-2.57552c0,-6.45 3.42824,-12.11783 8.55241,-15.27116zM105.9183,97.18392l33.48177,33.46777c0.473,0.473 0.473,1.24151 0,1.72168l-7.0127,7.0127c-0.2365,0.2365 -0.52417,0.34993 -0.85384,0.34993c-0.33683,0 -0.63134,-0.11343 -0.86784,-0.34993l-33.46777,-33.46777z"></path></g></g></svg>