<svg xmlns="http://www.w3.org/2000/svg" x="0px" y="0px"
width="24" height="24"
viewBox="0 0 172 172"
style=" fill:#000000;"><g fill="none" fill-rule="nonzero" stroke="none" stroke-width="1" stroke-linecap="butt" stroke-linejoin="miter" stroke-miterlimit="10" stroke-dasharray="" stroke-dashoffset="0" font-family="none" font-weight="none" font-size="none" text-anchor="none" style="mix-blend-mode: normal"><path d="M0,172v-172h172v172z" fill="none"></path><g fill="#ffffff"><path d="M71.66667,14.33333c-7.91608,0 -14.33333,6.41725 -14.33333,14.33333c0.00628,6.14139 3.92438,11.59632 9.74219,13.56348l2.25358,11.2959c-5.95559,2.51266 -11.18997,6.36627 -15.42513,11.12793l-10.91797,-6.81673c0.00762,-0.16787 0.01229,-0.33587 0.014,-0.50391c0,-7.91608 -6.41725,-14.33333 -14.33333,-14.33333c-7.91608,0 -14.33333,6.41725 -14.33333,14.33333c0,7.91608 6.41725,14.33333 14.33333,14.33333c2.34795,0 4.65995,-0.5768 6.73275,-1.67969l10.86198,6.78874c-2.09139,5.05436 -3.26139,10.58872 -3.26139,16.39095c0,9.27377 2.96843,17.8567 7.97852,24.88737l-11.43587,11.43587c-1.20972,-0.32467 -2.45678,-0.48938 -3.70931,-0.48991c-7.91608,0 -14.33333,6.41725 -14.33333,14.33333c0,7.91608 6.41725,14.33333 14.33333,14.33333c7.91608,0 14.33333,-6.41725 14.33333,-14.33333c-0.00632,-1.24846 -0.17572,-2.49074 -0.50391,-3.69531l11.44987,-11.44987c7.03067,5.01009 15.6136,7.97851 24.88737,7.97851c7.9191,0 15.31787,-2.18697 21.69597,-5.9349l7.69856,8.63639c-0.47747,1.44047 -0.72315,2.94763 -0.72786,4.46517c0,7.91608 6.41725,14.33333 14.33333,14.33333c7.91608,0 14.33333,-6.41725 14.33333,-14.33333c0,-7.91608 -6.41725,-14.33333 -14.33333,-14.33333c-0.98265,-0.00256 -1.96296,0.09594 -2.92545,0.29395l-7.37663,-8.25847c6.41311,-7.51245 10.30208,-17.2377 10.30208,-27.86882c0,-6.74212 -1.60495,-13.09976 -4.38118,-18.78451l14.68327,-10.47005c1.30891,0.3869 2.66636,0.58486 4.03125,0.58789c7.91608,0 14.33333,-6.41725 14.33333,-14.33333c0,-7.91608 -6.41725,-14.33333 -14.33333,-14.33333c-7.91608,0 -14.33333,6.41725 -14.33333,14.33333c0.00489,1.07929 0.13167,2.15457 0.37793,3.2054l-13.07356,9.33626c-7.77947,-7.74042 -18.48629,-12.54167 -30.30436,-12.54167c-0.91105,0 -1.80437,0.08389 -2.7015,0.13997l-2.1696,-10.88997c3.09208,-2.71758 4.86645,-6.63343 4.8711,-10.75c0,-7.91608 -6.41725,-14.33333 -14.33333,-14.33333zM86,64.5c8.11983,0 14.33333,6.2135 14.33333,14.33333c0,8.11983 -6.2135,14.33333 -14.33333,14.33333c-8.11983,0 -14.33333,-6.2135 -14.33333,-14.33333c0,-8.11983 6.2135,-14.33333 14.33333,-14.33333zM86,100.33333c11.74617,0 21.5,4.87411 21.5,11.91178v2.42155h-43v-2.42155c0,-7.03767 9.75383,-11.91178 21.5,-11.91178z"></path></g></g></svg>