<svg xmlns="http://www.w3.org/2000/svg" x="0px" y="0px"
width="24" height="24"
viewBox="0 0 172 172"
style=" fill:#000000;"><g fill="none" fill-rule="nonzero" stroke="none" stroke-width="1" stroke-linecap="butt" stroke-linejoin="miter" stroke-miterlimit="10" stroke-dasharray="" stroke-dashoffset="0" font-family="none" font-weight="none" font-size="none" text-anchor="none" style="mix-blend-mode: normal"><path d="M0,172v-172h172v172z" fill="none"></path><g fill="#666666"><path d="M28.66667,21.5v86h-14.33333v21.5c0,11.85367 9.64633,21.5 21.5,21.5h57.33333v-14.33333h-57.33333c-3.94883,0 -7.16667,-3.21783 -7.16667,-7.16667v-7.16667h78.83333l-14.33333,-14.33333h-50.16667v-71.66667h93.16667v28.66667h14.33333v-43zM57.33333,50.16667v14.33333h14.33333v-14.33333zM86,50.16667v14.33333h35.83333v-14.33333zM57.33333,78.83333v14.33333h14.33333v-14.33333zM107.5,78.83333v14.33333h7.16667v13.71744l14.94922,14.94922l-14.94922,14.94922v13.71744h-7.16667v14.33333h64.5v-14.33333h-7.16667v-13.71744l-14.94922,-14.94922l14.94922,-14.94922v-13.71744h7.16667v-14.33333zM129,93.16667h21.5v7.78256l-10.75,10.75l-10.75,-10.75zM139.75,131.96744l10.75,10.75v7.78256h-21.5v-7.78256z"></path></g></g></svg>