<svg xmlns="http://www.w3.org/2000/svg" x="0px" y="0px"
width="24" height="24"
viewBox="0 0 172 172"
style=" fill:#000000;"><g fill="none" fill-rule="nonzero" stroke="none" stroke-width="1" stroke-linecap="butt" stroke-linejoin="miter" stroke-miterlimit="10" stroke-dasharray="" stroke-dashoffset="0" font-family="none" font-weight="none" font-size="none" text-anchor="none" style="mix-blend-mode: normal"><path d="M0,172v-172h172v172z" fill="none"></path><g fill="#ffffff"><path d="M43,14.33333c-7.90483,0 -14.33333,6.4285 -14.33333,14.33333v114.66667c0,7.90483 6.4285,14.33333 14.33333,14.33333h32.264c-1.8705,-4.46483 -3.02836,-9.29517 -3.41536,-14.33333h-28.84864v-114.66667h86v52.7002c4.429,-1.59817 9.14489,-2.4837 14.02539,-2.51953v-52.21029c0.16483,-2.35783 -0.67288,-4.76539 -2.42155,-6.88672c-2.16433,-2.61583 -6.35068,-5.41699 -11.60384,-5.41699zM85.73405,40.49447v10.2321c-2.4295,0.30817 -16.02702,2.86275 -16.02702,19.27441c0,22.41733 21.71477,17.64691 24.49544,30.05241c3.71233,-2.25034 7.77292,-3.91323 12.06576,-5.06706c-4.85183,-14.30467 -23.01855,-12.70336 -23.02572,-24.91536c0,-8.07683 4.44267,-8.32845 5.403,-8.32845c1.75583,0 5.9349,1.54005 5.9349,11.37988h13.54948c0,-18.82683 -12.87268,-21.7627 -15.17318,-22.19987v-10.42806zM143.33333,93.16667c-10.55605,0 -19.81832,5.78314 -24.78939,14.36133c-0.10023,-0.00093 -0.19351,-0.02799 -0.29395,-0.02799c-17.7263,0 -32.25,14.5237 -32.25,32.25c0,17.7263 14.5237,32.25 32.25,32.25c14.14346,0 26.11495,-9.3044 30.43034,-22.0459c13.21679,-2.53273 23.31966,-14.20274 23.31966,-28.12077c0,-15.74756 -12.91911,-28.66667 -28.66667,-28.66667zM67.45345,99.29753c0,11.23017 4.6851,16.78601 9.33626,19.63834c1.83467,-3.6335 4.02442,-7.0473 6.70475,-10.05013c-1.36883,-1.62683 -2.49154,-4.43538 -2.49154,-9.58821zM143.33333,107.5c8.00277,0 14.33333,6.33056 14.33333,14.33333c0,5.58243 -3.11893,10.29376 -7.69857,12.66764c-1.6523,-9.92165 -7.86405,-18.2478 -16.40494,-22.92774c2.55903,-2.4447 5.90553,-4.07324 9.77018,-4.07324zM118.25,121.83333c9.97999,0 17.91667,7.93667 17.91667,17.91667c0,9.97999 -7.93667,17.91667 -17.91667,17.91667c-9.97999,0 -17.91667,-7.93667 -17.91667,-17.91667c0,-9.97999 7.93667,-17.91667 17.91667,-17.91667z"></path></g></g></svg>