<svg xmlns="http://www.w3.org/2000/svg" x="0px" y="0px"
width="24" height="24"
viewBox="0 0 172 172"
style=" fill:#000000;"><g fill="none" fill-rule="nonzero" stroke="none" stroke-width="1" stroke-linecap="butt" stroke-linejoin="miter" stroke-miterlimit="10" stroke-dasharray="" stroke-dashoffset="0" font-family="none" font-weight="none" font-size="none" text-anchor="none" style="mix-blend-mode: normal"><path d="M0,172v-172h172v172z" fill="none"></path><g fill="#ffffff"><path d="M57.33333,35.83333c-11.87517,0 -21.5,9.62483 -21.5,21.5c0,11.87517 9.62483,21.5 21.5,21.5c11.87517,0 21.5,-9.62483 21.5,-21.5c0,-11.87517 -9.62483,-21.5 -21.5,-21.5zM114.66667,35.83333c-11.87517,0 -21.5,9.62483 -21.5,21.5c0,11.87517 9.62483,21.5 21.5,21.5c11.87517,0 21.5,-9.62483 21.5,-21.5c0,-11.87517 -9.62483,-21.5 -21.5,-21.5zM57.33333,50.16667c3.94883,0 7.16667,3.21783 7.16667,7.16667c0,3.94883 -3.21783,7.16667 -7.16667,7.16667c-3.94883,0 -7.16667,-3.21783 -7.16667,-7.16667c0,-3.94883 3.21783,-7.16667 7.16667,-7.16667zM114.66667,50.16667c3.94883,0 7.16667,3.21783 7.16667,7.16667c0,3.94883 -3.21783,7.16667 -7.16667,7.16667c-3.94883,0 -7.16667,-3.21783 -7.16667,-7.16667c0,-3.94883 3.21783,-7.16667 7.16667,-7.16667zM57.33333,93.16667c-21.5,0 -50.16667,10.492 -50.16667,25.08333v17.91667h93.72656h6.60677h57.33333v-17.91667c0,-14.59133 -28.66667,-25.08333 -50.16667,-25.08333c-9.20247,0 -19.62466,2.02771 -28.63867,5.375c-9.0309,-3.3558 -19.47323,-5.375 -28.69466,-5.375zM57.33333,107.5c16.91333,0 33.11,7.3502 35.83333,11.46386v2.86947h-71.66667v-2.86947c2.72333,-4.11367 18.92,-11.46386 35.83333,-11.46386zM114.66667,107.5c16.91333,0 33.11,7.3502 35.83333,11.46386v2.86947h-43v-3.58333c0,-3.45261 -1.64587,-6.66534 -4.38118,-9.57422c3.72396,-0.67903 7.56872,-1.17578 11.54785,-1.17578z"></path></g></g></svg>